<svg width="25" height="23" viewBox="0 0 25 23" fill="none" xmlns="http://www.w3.org/2000/svg">
<path d="M7.26361 12.9942C7.96617 12.9942 8.64527 12.9488 9.28788 12.8643V5.82071C8.64533 5.7363 7.96617 5.69092 7.26361 5.69092C3.25211 5.69092 0.00012207 7.16583 0.00012207 8.9853V9.69976C0.00012207 11.5192 3.25211 12.9942 7.26361 12.9942Z" fill="#F6B850"/>
<path d="M7.26361 16.6722C7.96617 16.6722 8.64527 16.6268 9.28788 16.5425V14.4779C8.64514 14.5623 7.96636 14.6083 7.26361 14.6083C3.762 14.6083 0.839388 13.4844 0.152886 11.9886C0.0529108 12.2065 0.00012207 12.4321 0.00012207 12.6634V13.3778C0.00012207 15.1973 3.25211 16.6722 7.26361 16.6722Z" fill="#F6B850"/>
<path d="M9.28776 18.3163V18.1559C8.64502 18.2403 7.96624 18.2863 7.26349 18.2863C3.76188 18.2863 0.839266 17.1624 0.152764 15.6666C0.0527887 15.8844 0 16.11 0 16.3413V17.0558C0 18.8753 3.25198 20.3502 7.26349 20.3502C8.06572 20.3502 8.83732 20.2911 9.55887 20.1821C9.38002 19.8163 9.28776 19.4304 9.28776 19.0307V18.3163Z" fill="#F6B850"/>
<path d="M17.7365 0.11145C13.725 0.11145 10.473 1.58636 10.473 3.40584V4.12029C10.473 5.93976 13.725 7.41467 17.7365 7.41467C21.7479 7.41467 25 5.93976 25 4.12029V3.40584C25 1.58636 21.7479 0.11145 17.7365 0.11145Z" fill="#F6B850"/>
<path d="M17.7365 9.02883C14.2349 9.02883 11.3123 7.90501 10.6258 6.40918C10.5258 6.627 10.473 6.85259 10.473 7.08392V7.79837C10.473 9.61784 13.725 11.0928 17.7365 11.0928C21.7479 11.0928 25 9.61784 25 7.79837V7.08392C25 6.85259 24.9472 6.627 24.8472 6.40918C24.1607 7.90501 21.2381 9.02883 17.7365 9.02883Z" fill="#F6B850"/>
<path d="M17.7365 12.7068C14.2349 12.7068 11.3123 11.5829 10.6258 10.0872C10.5258 10.305 10.473 10.5306 10.473 10.7619V11.4764C10.473 13.2959 13.725 14.7708 17.7365 14.7708C21.7479 14.7708 25 13.2959 25 11.4764V10.7619C25 10.5306 24.9472 10.305 24.8472 10.0872C24.1607 11.583 21.2381 12.7068 17.7365 12.7068Z" fill="#F6B850"/>
<path d="M17.7365 16.5834C14.2349 16.5834 11.3123 15.4595 10.6258 13.9637C10.5258 14.1816 10.473 14.4072 10.473 14.6384V15.3529C10.473 17.1724 13.725 18.6473 17.7365 18.6473C21.7479 18.6473 25 17.1724 25 15.3529V14.6384C25 14.4072 24.9472 14.1815 24.8472 13.9637C24.1607 15.4594 21.2381 16.5834 17.7365 16.5834Z" fill="#F6B850"/>
<path d="M17.7365 20.2612C14.2349 20.2612 11.3123 19.1374 10.6258 17.6417C10.5258 17.8595 10.473 18.0852 10.473 18.3163V19.0308C10.473 20.8503 13.725 22.3252 17.7365 22.3252C21.7479 22.3252 25 20.8503 25 19.0308V18.3163C25 18.085 24.9472 17.8594 24.8472 17.6416C24.1607 19.1374 21.2381 20.2612 17.7365 20.2612Z" fill="#F6B850"/>
</svg>
