<svg width="38" height="35" viewBox="0 0 38 35" fill="none" xmlns="http://www.w3.org/2000/svg">
<path d="M10.9395 19.8032C11.9977 19.8032 13.0204 19.7334 13.9883 19.6036V8.7763C13.0205 8.64654 11.9977 8.57678 10.9395 8.57678C4.89786 8.57678 9.15527e-05 10.844 9.15527e-05 13.6408V14.739C9.15527e-05 17.5358 4.89786 19.8032 10.9395 19.8032Z" fill="white"/>
<path d="M10.9395 25.4567C11.9977 25.4567 13.0204 25.3869 13.9883 25.2572V22.0836C13.0203 22.2133 11.9979 22.284 10.9395 22.284C5.66581 22.284 1.2641 20.5565 0.230167 18.2572C0.079596 18.5921 9.15527e-05 18.9389 9.15527e-05 19.2944V20.3926C9.15527e-05 23.1895 4.89786 25.4567 10.9395 25.4567Z" fill="white"/>
<path d="M13.9882 27.9841V27.7374C13.0202 27.8671 11.9979 27.9378 10.9395 27.9378C5.66572 27.9378 1.26401 26.2103 0.230075 23.911C0.0795044 24.2458 0 24.5926 0 24.9481V26.0463C0 28.8433 4.89777 31.1105 10.9395 31.1105C12.1477 31.1105 13.3098 31.0196 14.3965 30.8521C14.1271 30.2897 13.9882 29.6966 13.9882 29.0822V27.9841Z" fill="white"/>
<path d="M26.7127 0C20.6711 0 15.7733 2.26719 15.7733 5.06403V6.16227C15.7733 8.95911 20.6711 11.2263 26.7127 11.2263C32.7543 11.2263 37.6522 8.95911 37.6522 6.16227V5.06403C37.6522 2.26719 32.7543 0 26.7127 0Z" fill="white"/>
<path d="M26.7127 13.7074C21.439 13.7074 17.0373 11.9799 16.0034 9.68054C15.8528 10.0154 15.7733 10.3621 15.7733 10.7177V11.816C15.7733 14.6128 20.6711 16.88 26.7127 16.88C32.7543 16.88 37.6522 14.6128 37.6522 11.816V10.7177C37.6522 10.3621 37.5727 10.0154 37.4221 9.68054C36.3882 11.9799 31.9865 13.7074 26.7127 13.7074Z" fill="white"/>
<path d="M26.7127 19.3611C21.439 19.3611 17.0373 17.6335 16.0034 15.3342C15.8528 15.669 15.7733 16.0158 15.7733 16.3714V17.4697C15.7733 20.2666 20.6711 22.5338 26.7127 22.5338C32.7543 22.5338 37.6522 20.2666 37.6522 17.4697V16.3714C37.6522 16.0158 37.5727 15.669 37.4221 15.3342C36.3882 17.6336 31.9865 19.3611 26.7127 19.3611Z" fill="white"/>
<path d="M26.7127 25.3201C21.439 25.3201 17.0373 23.5925 16.0034 21.2932C15.8528 21.6281 15.7733 21.9748 15.7733 22.3303V23.4286C15.7733 26.2255 20.6711 28.4927 26.7127 28.4927C32.7543 28.4927 37.6522 26.2255 37.6522 23.4286V22.3303C37.6522 21.9748 37.5727 21.6279 37.4221 21.2932C36.3882 23.5924 31.9865 25.3201 26.7127 25.3201Z" fill="white"/>
<path d="M26.7127 30.9737C21.439 30.9737 17.0373 29.2462 16.0034 26.947C15.8528 27.2819 15.7733 27.6288 15.7733 27.9841V29.0823C15.7733 31.8792 20.6711 34.1464 26.7127 34.1464C32.7543 34.1464 37.6522 31.8792 37.6522 29.0823V27.984C37.6522 27.6285 37.5727 27.2816 37.4221 26.9469C36.3882 29.2461 31.9865 30.9737 26.7127 30.9737Z" fill="white"/>
</svg>
