<svg width="31" height="38" viewBox="0 0 31 38" fill="none" xmlns="http://www.w3.org/2000/svg">
<path d="M31 9.62104V34.1657C31 36.1706 29.3687 37.8019 27.3637 37.8019H10.7734C8.7684 37.8019 7.13716 36.1706 7.13716 34.1657V18.2063C7.65585 18.2926 8.18498 18.3485 8.728 18.3485C9.11309 18.3485 9.49105 18.3199 9.86436 18.2757V34.1657C9.86436 34.6668 10.2721 35.0747 10.7734 35.0747H27.3637C27.8649 35.0747 28.2727 34.6667 28.2727 34.1657V9.62104C28.2727 9.1197 27.8648 8.712 27.3637 8.712H18.3646C18.3646 7.76391 18.2221 6.85014 17.9668 5.98488H27.3637C29.3687 5.9848 31 7.61605 31 9.62104ZM8.57615 17.1521C3.84711 17.1521 0 13.305 0 8.57615C7.50964e-05 3.84711 3.84711 0 8.57615 0C13.305 0 17.1523 3.84711 17.1523 8.57615C17.1523 13.305 13.305 17.1521 8.57615 17.1521ZM8.57615 15.3339C12.3023 15.3339 15.334 12.3027 15.334 8.57615C15.334 4.84935 12.3027 1.81816 8.57615 1.81816C4.84942 1.81816 1.81816 4.84935 1.81816 8.57615C1.81816 12.3027 4.84987 15.3339 8.57615 15.3339ZM13.7196 9.48527C14.2214 9.48527 14.6286 9.07802 14.6286 8.57623C14.6286 8.07444 14.2214 7.66719 13.7196 7.66719H9.4852V4.09861C9.4852 3.59682 9.07795 3.18957 8.57615 3.18957C8.07436 3.18957 7.66711 3.59682 7.66711 4.09861V8.57623C7.66711 9.07802 8.07436 9.48527 8.57615 9.48527H13.7196ZM24.2117 16.8558H14.3636C13.8618 16.8558 13.4546 17.2631 13.4546 17.7649C13.4546 18.2667 13.8618 18.6739 14.3636 18.6739H24.2117C24.7138 18.6739 25.1208 18.2667 25.1208 17.7649C25.1209 17.2631 24.7138 16.8558 24.2117 16.8558ZM24.2277 22.3701H14.3796C13.8778 22.3701 13.4706 22.7771 13.4706 23.2791C13.4706 23.7811 13.8778 24.1882 14.3796 24.1882H24.2277C24.7298 24.1882 25.1367 23.7811 25.1367 23.2791C25.1367 22.7771 24.7302 22.3701 24.2277 22.3701ZM24.2277 28.1125H14.3796C13.8778 28.1125 13.4706 28.52 13.4706 29.0216C13.4706 29.5236 13.8778 29.9306 14.3796 29.9306H24.2277C24.7298 29.9306 25.1367 29.5235 25.1367 29.0216C25.1368 28.5199 24.7302 28.1125 24.2277 28.1125Z" fill="#FAF9FF"/>
</svg>
