<svg width="40" height="35" viewBox="0 0 40 35" fill="none" xmlns="http://www.w3.org/2000/svg">
<path d="M34.0464 17.5604L20.0056 6.21069L5.95474 17.5655V33.7894C5.9546 33.8888 5.97596 33.9873 6.0176 34.0791C6.05924 34.171 6.12035 34.2544 6.19741 34.3247C6.27447 34.3949 6.36597 34.4506 6.46665 34.4885C6.56734 34.5264 6.67523 34.5457 6.78414 34.5455H15.5673V27.4316C15.567 27.3322 15.5882 27.2337 15.6297 27.1418C15.6712 27.0499 15.7322 26.9664 15.8092 26.896C15.8861 26.8257 15.9775 26.7699 16.0782 26.7319C16.1788 26.6939 16.2867 26.6744 16.3956 26.6745H23.6089C23.7178 26.6744 23.8256 26.6939 23.9263 26.7319C24.0269 26.7699 24.1183 26.8257 24.1953 26.896C24.2722 26.9664 24.3332 27.0499 24.3747 27.1418C24.4162 27.2337 24.4374 27.3322 24.4372 27.4316V34.5455H33.2203C33.3292 34.5459 33.4371 34.5266 33.5378 34.4887C33.6385 34.4509 33.73 34.3952 33.807 34.3249C33.884 34.2546 33.945 34.1711 33.9864 34.0792C34.0279 33.9873 34.049 33.8888 34.0486 33.7894V17.5604H34.0464Z" fill="#FAF9FF"/>
<path d="M19.9244 0L0 16.1031L2.09906 18.2637L20.0056 3.79035L37.9054 18.2637L40 16.1031L20.0834 0L20.0056 0.0822003L19.9244 0Z" fill="#FAF9FF"/>
<path d="M5.95474 2.31787H11.0056L10.9611 5.04875L5.95474 9.17703V2.31787Z" fill="#FAF9FF"/>
</svg>
